<?xml version="1.0" encoding="UTF-8" standalone="no"?>
<!-- Created with Inkscape (http://www.inkscape.org/) -->

<svg
   width="146.02165mm"
   height="156.00546mm"
   viewBox="0 0 146.02165 156.00546"
   version="1.1"
   id="svg5"
   inkscape:version="1.1 (c4e8f9ed74, 2021-05-24)"
   sodipodi:docname="predator.svg"
   xmlns:inkscape="http://www.inkscape.org/namespaces/inkscape"
   xmlns:sodipodi="http://sodipodi.sourceforge.net/DTD/sodipodi-0.dtd"
   xmlns="http://www.w3.org/2000/svg"
   xmlns:svg="http://www.w3.org/2000/svg">
  <sodipodi:namedview
     id="namedview7"
     pagecolor="#ffffff"
     bordercolor="#666666"
     borderopacity="1.0"
     inkscape:pageshadow="2"
     inkscape:pageopacity="0.0"
     inkscape:pagecheckerboard="0"
     inkscape:document-units="mm"
     showgrid="false"
     fit-margin-top="0"
     fit-margin-left="0"
     fit-margin-right="0"
     fit-margin-bottom="0"
     inkscape:zoom="0.54520202"
     inkscape:cx="-465.88235"
     inkscape:cy="472.30199"
     inkscape:window-width="2524"
     inkscape:window-height="1357"
     inkscape:window-x="16"
     inkscape:window-y="63"
     inkscape:window-maximized="1"
     inkscape:current-layer="layer1" />
  <defs
     id="defs2">
    <linearGradient
       id="linearGradient850"
       inkscape:swatch="solid">
      <stop
         style="stop-color:#0000ff;stop-opacity:1;"
         offset="0"
         id="stop848" />
    </linearGradient>
  </defs>
  <g
     inkscape:label="Слой 1"
     inkscape:groupmode="layer"
     id="layer1"
     transform="translate(-31.116337,-23.547508)">
    <path
       style="fill:#000000;stroke-width:0.193423"
       d="m 51.465578,179.29885 c -0.286511,-0.3956 -0.636839,-4.14569 -0.960145,-10.27792 -0.20419,-3.87292 -0.141725,-5.61434 0.373315,-10.40756 0.09011,-0.8386 0.24401,-2.30234 0.342001,-3.25275 0.09799,-0.95041 0.269058,-2.36841 0.380147,-3.1511 0.11109,-0.7827 0.278364,-2.01773 0.371721,-2.74451 0.760724,-5.92228 1.404771,-9.83322 2.209595,-13.41761 0.112977,-0.50316 0.251272,-1.16754 0.307321,-1.47639 0.05605,-0.30886 0.175174,-0.61158 0.264721,-0.67271 0.08954,-0.0611 0.162809,-0.32907 0.162809,-0.59541 0,-0.26633 0.08281,-0.54078 0.184028,-0.60989 0.101215,-0.0691 0.184028,-0.34356 0.184028,-0.60989 0,-0.26634 0.08281,-0.54079 0.184028,-0.60989 0.101215,-0.0691 0.184027,-0.33066 0.184027,-0.58123 0,-0.25057 0.06591,-0.5425 0.146461,-0.64872 0.08055,-0.10622 0.257322,-0.55907 0.392822,-1.00632 0.135498,-0.44725 0.409096,-1.22486 0.607991,-1.72802 0.198896,-0.50316 0.436189,-1.12068 0.527317,-1.37226 0.09113,-0.25158 0.240144,-0.66326 0.331144,-0.91484 0.091,-0.25158 0.270028,-0.77761 0.397839,-1.16895 0.292357,-0.89518 0.875262,-1.62638 1.296531,-1.62638 0.177896,0 0.500988,0.27544 0.717983,0.61209 0.34369,0.53321 0.383858,0.81487 0.311666,2.18545 -0.078,1.48079 -0.170099,2.02296 -0.681709,4.01291 -0.114986,0.44725 -0.25095,1.0419 -0.302139,1.32143 -0.05119,0.27953 -0.160207,0.69121 -0.242262,0.91484 -0.08205,0.22362 -0.250881,0.81827 -0.37517,1.32143 -0.124289,0.50316 -0.293732,1.0978 -0.376541,1.32143 -0.08281,0.22363 -0.286992,1.00124 -0.453739,1.72802 -0.16675,0.72679 -0.374732,1.59589 -0.462184,1.93133 -0.342815,1.31492 -0.579116,2.26672 -0.731842,2.9478 -0.08776,0.39135 -0.247875,1.05461 -0.35582,1.47391 -0.107945,0.4193 -0.284583,1.10543 -0.392528,1.52473 -0.107945,0.4193 -0.277356,1.12829 -0.376467,1.57555 -0.09911,0.44725 -0.263019,1.17912 -0.364234,1.62637 -0.638343,2.82073 -1.160846,5.46144 -1.448113,7.3187 -0.08647,0.55906 -0.251338,1.61113 -0.366367,2.33791 -0.638609,4.03494 -0.808138,5.52084 -1.136534,9.96156 -0.255233,3.45142 -0.259564,4.09245 -0.06349,9.40249 0.130128,3.52408 0.124618,3.60852 -0.235458,3.60852 -0.202786,0 -0.451524,-0.11435 -0.552752,-0.25412 z m 104.513972,-1.02579 c -0.1357,-0.18062 -0.14456,-0.67582 -0.0282,-1.57555 0.16869,-1.30434 -0.0729,-11.13945 -0.29939,-12.18852 -0.0603,-0.27954 -0.18031,-1.42308 -0.26657,-2.54121 -0.14681,-1.90283 -0.22962,-2.52489 -0.71725,-5.38738 -0.10476,-0.61497 -0.27088,-1.62129 -0.36917,-2.23626 -0.21962,-1.37419 -0.47829,-2.82698 -0.74202,-4.16759 -0.10998,-0.55907 -0.27804,-1.47391 -0.37346,-2.03297 -0.0954,-0.55907 -0.25396,-1.38242 -0.35232,-1.82968 -0.0984,-0.44725 -0.23019,-1.08764 -0.29296,-1.42308 -0.0628,-0.33544 -0.18166,-0.79286 -0.26423,-1.01648 -0.15854,-0.4294 -0.67504,-2.22603 -0.93511,-3.25275 -0.23372,-0.9227 -0.52098,-2.04794 -0.73956,-2.89699 -0.203,-0.78852 -0.393,-1.59873 -0.70323,-2.99863 -0.23993,-1.08272 -0.46272,-1.95066 -0.93929,-3.65935 -1.22227,-4.38228 -1.48445,-6.15241 -1.10124,-7.43514 0.12867,-0.43069 0.42458,-0.87451 0.68619,-1.02918 0.43192,-0.25536 0.4978,-0.22358 1.08085,0.52154 0.3415,0.43641 0.6209,0.91671 0.6209,1.06731 0,0.15061 0.0732,0.43269 0.16256,0.62685 0.57811,1.25543 2.98744,8.57797 3.52757,10.72116 0.56637,2.24729 0.63379,2.58804 1.08606,5.48902 0.0872,0.55907 0.25259,1.61113 0.36762,2.33792 0.62208,3.93049 1.50903,11.08826 1.83898,14.84068 0.0934,1.06223 0.27418,2.61745 0.40171,3.45605 0.40487,2.6621 0.1793,7.74852 -0.68519,15.45058 -0.14837,1.32189 -0.51225,1.75997 -0.96325,1.15965 z M 44.901464,175.02961 c -0.622281,-3.43002 -0.860388,-5.26729 -1.389809,-10.72392 -0.168633,-1.73807 -0.60978,-10.92706 -0.624635,-13.01101 -0.0077,-1.08494 0.283848,-4.91735 0.626433,-8.23353 0.415265,-4.01972 0.543586,-5.17329 0.723662,-6.50551 0.105796,-0.78269 0.275709,-2.15494 0.377582,-3.04945 0.233483,-2.0501 0.460517,-3.84749 0.731854,-5.79397 0.1169,-0.8386 0.282056,-2.02789 0.367014,-2.64286 0.250848,-1.81579 0.539903,-3.69049 0.73663,-4.77748 0.101181,-0.55907 0.274237,-1.56539 0.384568,-2.23627 0.379363,-2.30675 0.514549,-3.05139 0.701245,-3.86264 0.413711,-1.7977 0.560646,-2.4668 0.669663,-3.04946 0.06276,-0.33544 0.180779,-0.79286 0.26226,-1.01648 0.08148,-0.22363 0.421462,-1.36717 0.755515,-2.54122 0.334052,-1.17404 0.67521,-2.22152 0.75813,-2.32775 0.08292,-0.10622 0.150763,-0.35904 0.150763,-0.56182 0,-0.20278 0.07315,-0.52755 0.162557,-0.7217 0.224529,-0.4876 0.444569,-1.0931 1.125638,-3.09753 0.322934,-0.950411 0.653716,-1.910991 0.735073,-2.134611 0.08136,-0.22363 0.252659,-0.72679 0.380673,-1.11814 0.417145,-1.27524 1.664377,-3.9533 2.059292,-4.42171 0.212107,-0.25158 0.545019,-0.45742 0.739805,-0.45742 0.48894,0 1.352163,1.0737 1.508822,1.8767 0.249139,1.27703 0.314347,3.29276 0.129683,4.00868 -0.102395,0.39698 -0.285422,1.13345 -0.406728,1.636611 -0.121303,0.50316 -0.284157,1.14355 -0.361896,1.42308 -0.07774,0.27954 -0.243198,0.91992 -0.367689,1.42308 -0.12449,0.50316 -0.29028,1.0978 -0.368422,1.32143 -0.07814,0.22363 -0.245523,0.81827 -0.371956,1.32143 -0.264393,1.05218 -0.539424,2.11497 -0.73654,2.84616 -0.07536,0.27953 -0.241371,0.91992 -0.368917,1.42308 -0.127546,0.50316 -0.354011,1.32651 -0.503252,1.82967 -0.149241,0.50316 -0.344332,1.21216 -0.433536,1.57556 -0.0892,0.36339 -0.250508,1.00377 -0.358453,1.42307 -0.107946,0.4193 -0.268065,1.08256 -0.35582,1.47391 -0.08776,0.39134 -0.253381,1.07747 -0.368056,1.52473 -0.114675,0.44725 -0.2803,1.13338 -0.368055,1.52472 -0.08776,0.39135 -0.253381,1.07748 -0.368056,1.52473 -0.114675,0.44726 -0.289592,1.17912 -0.388704,1.62638 -0.262021,1.18238 -0.524685,2.33923 -0.715463,3.1511 -0.09196,0.39135 -0.253801,1.10035 -0.359642,1.57555 -0.105844,0.47521 -0.275255,1.22995 -0.37647,1.6772 -0.101215,0.44726 -0.272027,1.202 -0.379583,1.67721 -0.107555,0.4752 -0.26487,1.27568 -0.349587,1.77884 -0.08472,0.50316 -0.253467,1.46374 -0.374997,2.13462 -0.410654,2.26692 -0.720164,4.14748 -1.104167,6.70881 -0.117344,0.78269 -0.289068,1.92624 -0.381608,2.54121 -0.482127,3.20397 -0.776789,6.06175 -1.090008,10.57145 -0.333594,4.80305 -0.312193,6.14973 0.310955,19.56734 l 0.08261,1.77885 h -0.544257 c -0.466759,0 -0.561325,-0.0941 -0.664125,-0.66072 z m 117.308186,0.36156 c -0.2461,-0.32758 -0.19906,-2.62645 0.19563,-9.56075 0.40939,-7.19263 0.2469,-11.33029 -0.74451,-18.95745 -0.10537,-0.81065 -0.27118,-2.09142 -0.36846,-2.84616 -0.42621,-3.30646 -0.82351,-5.99841 -1.10269,-7.47117 -0.10597,-0.55906 -0.27165,-1.4739 -0.36818,-2.03297 -0.24669,-1.42873 -0.52531,-2.89449 -0.75357,-3.96429 -0.10736,-0.50316 -0.26895,-1.28077 -0.3591,-1.72802 -0.0901,-0.44726 -0.2431,-1.17913 -0.3399,-1.62638 -0.0968,-0.44725 -0.271,-1.27061 -0.38711,-1.82967 -0.2686,-1.29323 -0.48527,-2.23975 -0.73297,-3.20193 -0.10795,-0.4193 -0.28375,-1.10543 -0.39067,-1.52473 -0.10693,-0.4193 -0.27255,-1.05969 -0.36806,-1.42308 -0.38116,-1.45028 -0.57337,-2.2175 -0.72573,-2.89698 -0.0878,-0.39135 -0.24216,-1.03173 -0.34311,-1.42308 -0.10096,-0.39135 -0.34541,-1.39767 -0.54323,-2.23627 -0.19782,-0.8386 -0.49218,-1.9364 -0.65413,-2.43956 -0.16195,-0.50316 -0.29566,-1.11528 -0.29713,-1.36026 -0.001,-0.24498 -0.076,-0.49544 -0.16549,-0.55658 -0.0896,-0.0611 -0.20695,-0.36386 -0.2609,-0.67271 -0.0539,-0.30886 -0.18304,-0.88175 -0.28688,-1.2731 -0.10384,-0.39134 -0.27628,-1.0546 -0.3832,-1.4739 -0.21168,-0.83011 -0.46549,-1.81338 -0.73467,-2.84616 -1.24157,-4.763601 -1.25265,-4.851151 -0.88595,-7.000521 0.16054,-0.941 0.37743,-1.52285 0.71793,-1.92598 1.04615,-1.23857 1.81185,-0.5638 2.92031,2.57347 0.079,0.22363 0.31753,0.84015 0.53005,1.37004 0.21252,0.5299 0.3864,1.05717 0.3864,1.17172 0,0.11455 0.0731,0.36712 0.16255,0.56128 0.29956,0.65052 0.75216,1.895981 1.12564,3.097521 0.26754,0.86069 0.53894,1.60623 0.75758,2.08104 0.0894,0.19415 0.16256,0.49271 0.16256,0.66347 0,0.17075 0.0809,0.46932 0.17983,0.66347 0.30686,0.60237 1.20306,3.70066 1.66045,5.74038 0.0878,0.39135 0.25338,1.07748 0.36806,1.52473 0.74422,2.90261 1.4923,7.12248 2.21644,12.50277 0.0978,0.72679 0.26338,1.91608 0.36789,2.64286 0.40883,2.84283 0.64376,4.71838 1.08863,8.69095 0.097,0.86656 0.26608,2.26168 0.37565,3.10028 0.10956,0.8386 0.27494,2.21086 0.36749,3.04946 0.0926,0.8386 0.27423,2.25659 0.40372,3.1511 0.14142,0.97696 0.23433,3.45288 0.23268,6.20056 -0.004,7.47059 -0.68882,16.19537 -1.70616,21.75279 -0.34558,1.88774 -0.77628,2.45447 -1.31769,1.73381 z m -67.450555,-0.39236 c -1.207622,-0.3803 -1.993338,-0.90606 -2.548206,-1.70512 -0.497915,-0.71705 -0.518672,-0.83009 -0.418485,-2.2792 0.103144,-1.49191 0.292711,-3.44211 0.671886,-6.9121 0.276949,-2.53448 0.532781,-4.95497 0.730568,-6.9121 0.441317,-4.36687 1.108253,-10.53359 1.473112,-13.6209 0.402627,-3.4069 0.576927,-5.08291 0.739982,-7.11539 0.18701,-2.3311 0.454651,-4.89065 0.655023,-6.26424 0.15255,-1.04576 0.893515,-1.95671 1.744525,-2.14474 0.8086,-0.17865 10.10123,-0.14356 11.6274,0.0439 2.07855,0.25532 2.66565,1.19681 2.99783,4.80736 0.27946,3.03757 0.45497,4.80152 0.63718,6.40385 0.10807,0.95042 0.27628,2.59712 0.37381,3.65935 0.0975,1.06223 0.25967,2.75468 0.36034,3.761 0.10067,1.00632 0.26979,2.69876 0.37582,3.76099 0.10604,1.06223 0.27133,2.57171 0.36732,3.3544 0.22921,1.86904 0.49127,4.22238 0.73574,6.60716 0.25604,2.49762 0.50042,4.84332 0.73601,7.06457 0.44444,4.1905 0.44413,5.04691 -0.002,5.73914 -0.54709,0.84877 -1.53625,1.49868 -2.73103,1.79438 -1.32789,0.32865 -17.465833,0.29178 -18.526765,-0.0423 z m -7.648663,-5.05187 c -0.259369,-0.25145 -0.753144,-0.91459 -1.097279,-1.47366 -0.344134,-0.55907 -0.918644,-1.43575 -1.276686,-1.9482 -1.046594,-1.49791 -8.069549,-10.97738 -8.271298,-11.16446 -0.103496,-0.096 -0.983035,-1.26103 -3.990356,-5.28572 -3.068408,-4.10645 -4.465285,-6.05467 -4.944219,-6.89568 -0.558077,-0.97998 -0.558685,-1.00569 -0.171606,-7.25985 0.146195,-2.36211 0.530276,-3.02957 1.72345,-2.995 0.423712,0.0123 0.950074,0.116 1.169694,0.23051 0.784831,0.40921 1.707054,0.8336 2.975703,1.36937 0.708508,0.2992 1.45382,0.61817 1.656251,0.70882 0.202431,0.0906 0.864931,0.36561 1.472223,0.61103 0.607292,0.24543 1.269792,0.52389 1.472223,0.6188 0.20243,0.0949 1.154775,0.45684 2.11632,0.80428 4.392169,1.58708 5.581227,2.50991 8.847217,6.86637 1.9305,2.57506 2.277054,3.56664 2.112014,6.043 -0.521193,7.82033 -1.288902,16.23307 -1.678954,18.39838 -0.176135,0.97778 -0.754329,1.82973 -1.241588,1.82942 -0.220843,-1.3e-4 -0.613742,-0.20597 -0.873109,-0.45741 z m 32.437338,0.0454 c -0.22029,-0.22672 -0.44793,-0.66127 -0.50586,-0.96566 -0.0579,-0.30439 -0.14786,-0.73641 -0.19986,-0.96003 -0.26791,-1.15233 -1.16274,-11.01729 -1.64121,-18.09344 -0.11288,-1.66935 -0.0841,-1.92806 0.32846,-2.95257 0.51162,-1.27051 2.03523,-3.37627 4.22014,-5.83263 1.84157,-2.07034 2.71054,-2.57454 7.32161,-4.24819 1.06784,-0.38758 2.10715,-0.78664 2.30959,-0.88679 0.20243,-0.10015 0.6993,-0.29085 1.10416,-0.42378 0.40486,-0.13293 0.87991,-0.32194 1.05567,-0.42003 0.17575,-0.0981 0.43217,-0.17834 0.56981,-0.17834 0.13765,0 0.49073,-0.12845 0.78462,-0.28545 0.67092,-0.3584 1.97325,-0.99608 2.90318,-1.42152 0.39192,-0.1793 1.02807,-0.326 1.41368,-0.326 1.08376,0 1.39694,0.64224 1.5373,3.15256 0.36221,6.47786 0.3757,5.9059 -0.16335,6.92204 -0.26999,0.50895 -1.08882,1.72091 -1.81962,2.69325 -1.31728,1.75267 -5.76172,7.67412 -9.87184,13.15252 -2.2403,2.98611 -3.46236,4.65889 -4.23063,5.79096 -0.55667,0.82028 -2.73067,3.87736 -3.508,4.93296 -0.63437,0.86147 -1.02779,0.94714 -1.60785,0.35014 z m 55.20134,-6.44905 c -0.11689,-0.32878 -0.23941,-2.98752 -0.29743,-6.45468 -0.15592,-9.31648 -0.60926,-15.79346 -1.39447,-19.92311 -0.10631,-0.55907 -0.27271,-1.47391 -0.3698,-2.03298 -0.26149,-1.50575 -0.49939,-2.73375 -0.72863,-3.76099 -0.11229,-0.50316 -0.27619,-1.28077 -0.36424,-1.72803 -0.0881,-0.44725 -0.25447,-1.17912 -0.36983,-1.62637 -0.11535,-0.44726 -0.28603,-1.17912 -0.37927,-1.62638 -0.0932,-0.44725 -0.24795,-1.13338 -0.3438,-1.52473 -0.0958,-0.39134 -0.22848,-0.94024 -0.29474,-1.21978 -0.20215,-0.85279 -1.22125,-4.54804 -1.37362,-4.98078 -0.0788,-0.22362 -0.3312,-1.09272 -0.56101,-1.93132 -0.54501,-1.98877 -1.80988,-6.2906 -2.00249,-6.81045 -0.0829,-0.22363 -0.25562,-0.68104 -0.38392,-1.01648 -0.1283,-0.33544 -0.305,-0.81573 -0.39268,-1.06731 -0.0877,-0.25158 -0.23386,-0.66326 -0.32486,-0.91484 -0.091,-0.25158 -0.26498,-0.77761 -0.38663,-1.16896 -0.12164,-0.39135 -0.28808,-0.89451 -0.36986,-1.11813 -0.0818,-0.22363 -0.4531,-1.27569 -0.82517,-2.33792 -0.37206,-1.06222 -0.80349,-2.25151 -0.95874,-2.642861 -0.62688,-1.5803 -0.77337,-1.96926 -1.07195,-2.84616 -0.17133,-0.50316 -0.46797,-1.30264 -0.65921,-1.77663 -0.19124,-0.47399 -0.34771,-0.90953 -0.34771,-0.96788 0,-0.0583 -0.17526,-0.53963 -0.38947,-1.06952 -0.21421,-0.5299 -0.49531,-1.2379 -0.62467,-1.57334 -0.29101,-0.75459 -0.91046,-2.29867 -1.49084,-3.71619 -0.24171,-0.59034 -0.43946,-1.11737 -0.43946,-1.17118 0,-0.0538 -0.17388,-0.53139 -0.3864,-1.06128 -0.21252,-0.5299 -0.46095,-1.16929 -0.55208,-1.42087 -0.0911,-0.25158 -0.2485,-0.68612 -0.34972,-0.96566 -0.10121,-0.27953 -0.26684,-0.73695 -0.36805,-1.01648 -0.10122,-0.27954 -0.25635,-0.71408 -0.34475,-0.96566 -0.0884,-0.25158 -0.34732,-0.91484 -0.57539,-1.47391 -0.22808,-0.55906 -0.48701,-1.22232 -0.5754,-1.4739 -0.0884,-0.25158 -0.26423,-0.70006 -0.39075,-0.99662 -0.14538,-0.34076 -0.22937,-1.45703 -0.22822,-3.03307 0.002,-2.46634 0.008,-2.50207 0.55208,-3.23822 0.30265,-0.40941 0.77469,-0.89317 1.04897,-1.07503 0.48252,-0.31992 0.52135,-0.31044 1.19619,0.29192 0.68734,0.61352 1.58142,2.17326 3.42054,5.96722 0.51492,1.06223 1.2097,2.48023 1.54396,3.15111 0.70045,1.40583 3.31793,7.23839 3.92305,8.74177 1.04715,2.60159 1.43305,3.57904 1.84604,4.67583 0.0842,0.22363 0.25286,0.77253 0.37479,1.21979 0.12193,0.44725 0.28317,0.99615 0.35831,1.21978 0.0751,0.22363 0.32113,1.09272 0.54666,1.93132 0.22552,0.8386 0.48382,1.73487 0.57399,1.99171 0.0902,0.25684 0.16396,0.68599 0.16396,0.95367 0,0.267671 0.0733,0.536701 0.16281,0.597831 0.0895,0.0611 0.20695,0.36386 0.26089,0.67272 0.054,0.30885 0.182,0.88174 0.28455,1.27309 0.25397,0.96914 0.9416,3.80357 1.13435,4.67583 0.0865,0.39135 0.25106,1.07748 0.36573,1.52473 0.31748,1.23822 0.8007,3.3735 1.10417,4.87913 0.18265,0.9062 0.4831,2.2764 0.73553,3.3544 0.0916,0.39135 0.26162,1.16896 0.37773,1.72802 0.26512,1.27652 0.49331,2.32555 0.71861,3.30358 0.44996,1.95333 0.74723,3.36405 1.09242,5.18408 0.24386,1.28578 0.58658,2.99473 0.78484,3.91346 0.98291,4.55495 0.97731,24.01525 -0.009,30.18962 -0.38771,2.42784 -0.55294,2.84615 -1.12424,2.84615 -0.18171,0 -0.41022,-0.24475 -0.52197,-0.55906 z M 32.335056,163.23838 c -0.740239,-1.07079 -1.229116,-8.3094 -1.218551,-18.04261 0.0099,-9.15964 0.218832,-11.82133 1.3402,-17.07695 0.107357,-0.50316 0.28111,-1.37226 0.386118,-1.93133 0.105009,-0.55906 0.270137,-1.40529 0.366952,-1.88049 0.09682,-0.47521 0.252595,-1.25282 0.346176,-1.72803 0.09358,-0.4752 0.265453,-1.22994 0.381936,-1.6772 0.116483,-0.44725 0.283825,-1.17912 0.371872,-1.62637 0.08805,-0.44726 0.251627,-1.22487 0.363511,-1.72803 0.111884,-0.50316 0.28154,-1.32651 0.377014,-1.82967 0.32937,-1.73582 0.729356,-3.55272 1.096505,-4.98078 0.114987,-0.44725 0.248645,-1.0419 0.297017,-1.32143 0.178362,-1.03072 0.782227,-3.57124 0.99061,-4.16759 0.07814,-0.22363 0.234328,-0.7954 0.34708,-1.27061 0.112752,-0.4752 0.297421,-1.25281 0.410374,-1.72802 0.242715,-1.02112 0.506924,-1.92721 0.72618,-2.490391 0.08706,-0.22363 0.585862,-1.87033 1.108444,-3.65935 0.522582,-1.78901 1.014322,-3.43572 1.092756,-3.65934 0.07843,-0.22363 0.242134,-0.72679 0.363779,-1.11814 0.505467,-1.62615 0.899114,-2.57194 3.384558,-8.13188 3.619409,-8.09661 5.33418,-11.44422 6.415456,-12.52438 0.772317,-0.77152 1.154276,-0.84481 1.718078,-0.32964 1.004255,0.91764 1.179831,1.49503 1.179831,3.87995 0,1.23537 -0.09312,2.50202 -0.206942,2.81477 -0.113817,0.31275 -0.268364,0.7516 -0.343434,0.97523 -0.07507,0.22362 -0.222777,0.6353 -0.32824,0.91483 -0.105461,0.27954 -0.41335,1.14863 -0.684199,1.93133 -0.27085,0.78269 -0.609706,1.7204 -0.753014,2.08379 -0.143308,0.36339 -0.376041,0.95804 -0.517181,1.32143 -0.14114,0.36339 -0.430984,1.09526 -0.644098,1.62638 -0.213113,0.53111 -0.561842,1.40021 -0.774956,1.93132 -0.213113,0.53111 -0.502957,1.26298 -0.644097,1.62638 -0.534313,1.37569 -0.816728,2.10461 -1.063332,2.74451 -0.140045,0.36339 -0.429889,1.09426 -0.644097,1.62416 -0.214208,0.52989 -0.389469,1.03874 -0.389469,1.13077 0,0.092 -0.165625,0.54603 -0.368056,1.00888 -0.202431,0.46285 -0.368056,0.9387 -0.368056,1.05743 0,0.11873 -0.07315,0.37473 -0.162557,0.56889 -0.08941,0.19415 -0.255031,0.60459 -0.368055,0.91207 -0.113025,0.30749 -0.299392,0.81065 -0.414149,1.11814 -0.265638,0.711761 -0.533168,1.450621 -0.736112,2.032971 -0.08767,0.25158 -0.234144,0.66326 -0.325492,0.91484 -0.09135,0.25158 -0.347859,1.00632 -0.570025,1.67719 -0.481548,1.45415 -0.624727,1.86827 -0.878614,2.54122 -0.474055,1.25652 -1.207768,3.45183 -1.625561,4.86378 -0.25064,0.84704 -0.529573,1.72304 -0.619853,1.94667 -0.09028,0.22362 -0.269703,0.77253 -0.39872,1.21978 -0.129016,0.44725 -0.285199,0.90467 -0.347072,1.01649 -0.06187,0.11181 -0.218849,0.61497 -0.348837,1.11813 -0.129987,0.50316 -0.310529,1.12498 -0.401204,1.38182 -0.09068,0.25684 -0.164863,0.64689 -0.164863,0.86677 0,0.21988 -0.07866,0.55864 -0.174804,0.7528 -0.09614,0.19416 -0.309765,0.94765 -0.474716,1.67444 -0.164952,0.72679 -0.376134,1.61875 -0.469294,1.98215 -0.09316,0.36339 -0.256863,1.00378 -0.363785,1.42308 -0.106922,0.4193 -0.278054,1.08255 -0.380292,1.4739 -0.102238,0.39135 -0.255777,1.03173 -0.341197,1.42308 -0.146344,0.67046 -0.55342,2.47335 -0.918049,4.06594 -0.0896,0.39135 -0.258627,1.26044 -0.375613,1.93132 -0.116987,0.67088 -0.283255,1.58572 -0.369485,2.03297 -0.319777,1.6586 -0.767545,4.87443 -1.089811,7.82694 -0.23341,2.13842 -0.339943,4.47658 -0.567941,12.46499 -0.09834,3.44544 -0.229421,6.48727 -0.291299,6.75963 -0.121247,0.53367 -0.644262,0.66789 -0.939325,0.24107 z m 58.240502,-21.85443 c -0.263905,-0.30749 -0.866653,-1.29094 -1.339439,-2.18544 -1.545032,-2.92318 -2.710572,-3.95307 -5.61071,-4.95768 -0.759115,-0.26296 -1.545834,-0.54781 -1.748264,-0.63299 -0.202431,-0.0852 -0.98915,-0.36522 -1.748265,-0.6223 -0.759115,-0.25707 -1.458881,-0.54241 -1.555035,-0.63409 -0.09615,-0.0917 -0.348733,-0.16669 -0.561285,-0.16669 -0.212553,0 -0.465131,-0.0756 -0.561285,-0.16795 -0.09615,-0.0924 -0.547483,-0.29182 -1.002952,-0.44321 -0.455469,-0.1514 -0.910938,-0.3338 -1.012153,-0.40533 -0.101216,-0.0715 -0.556685,-0.2545 -1.012154,-0.40659 -0.455469,-0.1521 -0.910938,-0.33621 -1.012153,-0.40914 -0.101215,-0.0729 -0.473872,-0.25563 -0.828125,-0.40599 -2.446393,-1.03837 -3.687889,-1.98099 -4.119527,-3.12782 -0.13067,-0.34718 -0.298414,-1.50033 -0.372765,-2.56256 -0.134901,-1.92733 -0.348762,-3.8267 -0.56081,-4.98077 -0.06163,-0.33544 -0.204433,-1.11306 -0.317336,-1.72803 -0.283507,-1.54426 -0.695376,-3.2711 -1.612246,-6.75963 -0.279437,-1.06321 -0.528765,-2.04626 -0.65741,-2.59203 -0.06589,-0.27954 -0.186258,-0.69121 -0.267488,-0.91484 -0.08123,-0.22363 -0.248568,-0.81827 -0.371861,-1.32143 -0.123292,-0.50316 -0.298357,-1.12498 -0.389031,-1.38182 -0.399801,-1.13246 -0.06318,-2.0491 0.642621,-1.7499 0.14047,0.0595 0.852815,1.4518 1.582989,3.0939 1.535645,3.45353 1.558102,3.51014 2.394251,6.03508 0.222166,0.67088 0.489757,1.44849 0.594645,1.72803 0.104891,0.27953 0.251953,0.69121 0.326803,0.91483 0.845885,2.5272 2.601531,4.5885 6.135965,7.20421 3.214365,2.37884 6.872338,4.28208 8.230033,4.28208 0.415727,0 2.027362,0.36204 3.759437,0.84454 0.404862,0.11278 1.067362,0.24492 1.472223,0.29365 1.704339,0.20514 2.712162,0.5678 3.260124,1.17314 l 0.551631,0.60939 -0.109042,2.8597 c -0.05998,1.57283 -0.190789,3.59157 -0.290698,4.48608 -0.09991,0.8945 -0.247632,2.32778 -0.328271,3.18505 -0.100508,1.06849 -0.255716,1.69185 -0.493529,1.98215 -0.443462,0.54133 -0.493339,0.535 -1.068888,-0.1356 z m 25.749722,-0.12211 c -0.17775,-0.2997 -0.31743,-1.15245 -0.37461,-2.28709 -0.0501,-0.99507 -0.18226,-2.40386 -0.29359,-3.13065 -0.11133,-0.72678 -0.25171,-2.53348 -0.31196,-4.01487 -0.0907,-2.22931 -0.0607,-2.77583 0.17403,-3.17154 0.35924,-0.60567 1.37355,-1.14071 2.58684,-1.36452 0.51963,-0.0959 1.35884,-0.26908 1.86492,-0.38495 0.95709,-0.21912 2.5345,-0.542 3.9566,-0.80986 1.0922,-0.20573 3.47666,-1.11419 4.96875,-1.89307 1.83853,-0.95973 5.93647,-4.07634 7.45475,-5.66956 1.44999,-1.52158 2.36035,-3.24171 3.21287,-6.07079 0.63319,-2.10121 0.76303,-2.43662 2.38065,-6.14973 1.03735,-2.38114 1.3821,-2.99863 1.67418,-2.99863 0.31269,0 0.36783,0.13572 0.36783,0.90527 0,0.4979 -0.0742,1.11541 -0.16486,1.37225 -0.0907,0.25684 -0.26749,0.87866 -0.39293,1.38182 -0.39786,1.59588 -0.59346,2.32634 -0.73492,2.74451 -0.0757,0.22363 -0.23941,0.81827 -0.3639,1.32143 -0.12449,0.50316 -0.28995,1.14355 -0.36769,1.42308 -0.0777,0.27954 -0.24496,0.91992 -0.37159,1.42308 -0.69295,2.75326 -0.87017,3.60749 -1.09663,5.28573 -0.11316,0.8386 -0.28457,1.96625 -0.38092,2.5059 -0.0963,0.53964 -0.17642,1.63744 -0.17794,2.43956 -0.006,3.04061 -0.76579,4.04763 -4.32188,5.72651 -1.01425,0.47883 -1.37081,0.63316 -2.11632,0.91596 -0.65731,0.24934 -1.15004,0.45923 -1.88629,0.80351 -0.22773,0.10649 -1.44922,0.56826 -2.71441,1.02616 -1.26519,0.4579 -2.46597,0.91476 -2.6684,1.01525 -0.20244,0.10049 -1.15478,0.47287 -2.11633,0.82752 -0.96154,0.35465 -1.95529,0.76407 -2.20833,0.9098 -0.82202,0.47346 -2.12669,2.1853 -3.19292,4.18939 -1.24239,2.3352 -1.78984,2.73196 -2.385,1.72853 z m -13.1009,-16.19729 c -3.95146,-0.17861 -3.9045,-0.15835 -9.245598,-3.9898 -0.834033,-0.5983 -1.561403,-1.08782 -1.616377,-1.08782 -0.05497,0 -0.963966,-0.64038 -2.019979,-1.42307 -1.056012,-0.7827 -1.965734,-1.42308 -2.021605,-1.42308 -0.105685,0 -5.936356,-4.31373 -8.858315,-6.55369 -0.923191,-0.70771 -1.999754,-1.59549 -2.392362,-1.97284 -1.472946,-1.4157 -2.748407,-3.72042 -3.100572,-5.60262 -0.06276,-0.33544 -0.193715,-0.97582 -0.291008,-1.42308 -0.443785,-2.040081 -0.759971,-4.136031 -1.104066,-7.318691 -0.09671,-0.89451 -0.260834,-2.3125 -0.364718,-3.1511 -0.103885,-0.8386 -0.268715,-2.2566 -0.366287,-3.15111 -0.329796,-3.02343 -0.67372,-5.00805 -1.430931,-8.2572 -0.464173,-1.99174 -1.314687,-2.68066 -3.338848,-2.70447 -1.324092,-0.0156 -1.498295,-0.0761 -3.620524,-1.25833 -2.872929,-1.60039 -3.725046,-2.25098 -5.408316,-4.12928 -1.856766,-2.07189 -4.600034,-6.7236 -4.600034,-7.80019 0,-0.14658 -0.0677,-0.35341 -0.150441,-0.45964 -0.620943,-0.79715 -0.883282,-6.19608 -0.40946,-8.42666 0.425101,-2.0012 0.634274,-2.61693 1.657526,-4.87913 1.648575,-3.64465 3.804176,-6.14068 9.480766,-10.97804 0.984091,-0.8386 3.043644,-2.62731 4.576789,-3.97491 7.310778,-6.42603 8.201802,-7.03296 14.281289,-9.72789 1.159582,-0.51402 2.360364,-0.9378 2.668404,-0.94173 0.308041,-0.004 1.098354,-0.14943 1.756254,-0.32334 2.143253,-0.56655 2.479225,-0.5703 3.191495,-0.0356 0.356332,0.26749 1.155843,1.16828 1.776692,2.00177 2.052183,2.75506 3.335615,4.26239 3.907329,4.58899 0.310387,0.17732 1.391647,0.40178 2.402807,0.4988 1.89863,0.18219 2.52377,0.4807 2.52377,1.20513 0,0.76044 -0.64442,1.06334 -2.43205,1.14315 -5.174791,0.23105 -6.004925,0.35526 -8.609625,1.28825 -0.860331,0.30816 -1.936894,0.67117 -2.392363,0.80668 -0.455469,0.13551 -1.325,0.40976 -1.932292,0.60945 -0.607292,0.19969 -1.476824,0.48366 -1.932293,0.63104 -0.455469,0.14738 -0.906797,0.34354 -1.002952,0.43591 -0.09615,0.0924 -0.325013,0.16795 -0.508573,0.16795 -0.183561,0 -0.477545,0.0861 -0.653299,0.19126 -0.175754,0.10519 -0.692208,0.35677 -1.147677,0.55906 -0.875312,0.38877 -4.051423,2.14132 -5.174284,2.85513 -4.350584,2.76571 -6.977339,5.34673 -9.30462,9.14261 -1.282317,2.09151 -1.893764,3.4481 -2.50092,5.54867 -0.898336,3.10797 -1.088199,4.80796 -0.690894,6.18613 0.687396,2.38442 0.967896,3.31854 1.103173,3.67378 0.08516,0.22362 0.292767,0.81827 0.461353,1.32143 0.523237,1.56165 0.753033,1.82967 1.568727,1.82967 0.607005,0 0.742786,-0.0762 0.814927,-0.45742 0.04761,-0.25158 0.122752,-2.42431 0.166979,-4.8283 0.07405,-4.02491 0.114815,-4.46106 0.515032,-5.51005 0.566121,-1.48385 2.687708,-5.41435 3.890441,-7.20753 1.976426,-2.94669 5.419521,-6.20646 8.692311,-8.2295 2.537509,-1.56853 4.214205,-2.40237 6.43868,-3.20202 3.648332,-1.31148 6.134711,-1.90059 9.569449,-2.26734 0.91094,-0.0973 2.19871,-0.2428 2.86171,-0.32342 1.05711,-0.12853 1.43184,-0.0684 3.04506,0.48893 1.01179,0.34953 2.02234,0.6355 2.24567,0.6355 0.22333,0 1.19757,-0.28572 2.16499,-0.63493 1.40562,-0.50738 1.93227,-0.60834 2.6218,-0.5026 0.47457,0.0728 1.73239,0.22058 2.79515,0.32845 3.02601,0.30716 4.55635,0.60595 7.40712,1.4462 1.23866,0.36509 2.96107,0.99065 3.31,1.20216 0.17576,0.10653 0.40439,0.19369 0.50809,0.19369 0.10369,0 0.58098,0.19361 1.06065,0.43025 0.47967,0.23664 1.16197,0.56607 1.51623,0.73206 2.09651,0.9824 3.44308,1.85388 5.52083,3.57302 3.14902,2.60551 5.76771,5.89453 8.41627,10.5707 0.88494,1.5624 1.11737,2.14359 1.68967,4.22492 0.10979,0.39929 0.19962,2.06291 0.19962,3.69694 0,1.63403 0.0789,3.20006 0.17522,3.48008 0.21444,0.62307 0.82724,1.01273 1.36015,0.86488 0.54802,-0.15204 1.26961,-1.85249 2.30335,-5.4279 0.2643,-0.91415 0.26918,-2.43313 0.0113,-3.51968 -0.10923,-0.46023 -0.28293,-1.20271 -0.38599,-1.64997 -0.10307,-0.44725 -0.26214,-0.97204 -0.35349,-1.16619 -0.0914,-0.19416 -0.16609,-0.49272 -0.16609,-0.66348 0,-0.17075 -0.077,-0.46932 -0.17112,-0.66347 -0.0941,-0.19416 -0.51545,-1.13062 -0.93628,-2.08104 -1.27658,-2.88299 -2.85438,-5.08631 -5.21501,-7.28247 -1.43511,-1.33513 -3.64687,-3.08568 -3.89864,-3.08568 -0.0658,0 -0.33952,-0.17216 -0.60819,-0.38257 -1.47122,-1.15225 -6.83576,-4.08996 -7.46867,-4.08996 -0.14695,0 -0.31836,-0.0915 -0.38092,-0.2033 -0.0626,-0.11181 -0.27559,-0.2033 -0.47343,-0.2033 -0.19783,0 -0.50349,-0.0826 -0.67924,-0.18348 -0.2883,-0.16554 -0.86347,-0.35819 -2.52789,-0.84671 -2.37384,-0.69674 -3.18979,-0.96784 -4.41666,-1.46747 -1.80559,-0.7353 -2.22529,-0.79839 -7.17709,-1.07888 -2.04765,-0.11599 -2.45202,-0.19541 -2.80643,-0.55119 -0.89078,-0.89426 -0.19326,-1.56458 1.62806,-1.56458 2.35965,0 3.28404,-0.64186 5.67337,-3.93932 2.70432,-3.73218 3.19684,-4.09733 5.08198,-3.76771 1.8593,0.32509 3.99562,1.13632 7.81365,2.9671 0.35426,0.16986 0.80972,0.38016 1.01216,0.46732 2.19179,0.94375 4.96433,2.98598 9.72938,7.1666 2.07285,1.81861 4.66406,4.08418 5.75823,5.03459 5.48751,4.7665 7.85772,7.54931 9.39758,11.03353 0.85152,1.92672 1.03897,2.49297 1.51269,4.56952 0.69071,3.02771 0.57208,5.34649 -0.47065,9.19919 -0.21865,0.80787 -1.54341,3.47689 -2.16851,4.36893 -2.36617,3.37662 -4.66437,5.57847 -7.39493,7.08489 -2.08155,1.14837 -2.64594,1.35367 -3.73435,1.35836 -1.24892,0.005 -2.4013,0.53669 -2.91532,1.3441 -0.35894,0.56382 -0.90037,2.15821 -1.30248,3.83551 -0.28601,1.19302 -0.57089,2.88262 -0.95976,5.69232 -0.0929,0.67088 -0.25463,1.81442 -0.35951,2.54121 -0.10487,0.72679 -0.26909,2.28201 -0.36492,3.45605 -0.15983,1.9581 -0.3244,3.2056 -0.75094,5.69232 -0.83484,4.867031 -1.47919,6.480561 -3.49214,8.744651 -1.44572,1.6261 -2.64325,2.67896 -4.53839,3.99012 -0.62363,0.43146 -2.36269,1.71008 -3.86458,2.84138 -1.50189,1.1313 -3.55884,2.60631 -4.57099,3.27781 -1.95653,1.29802 -3.27626,2.19108 -5.79688,3.92275 -0.86033,0.59105 -2.06111,1.40607 -2.6684,1.81117 -1.07384,0.7163 -2.5298,1.26507 -3.17713,1.19749 -0.17567,-0.0183 -1.72722,-0.097 -3.44787,-0.17476 z"
       id="path1153" />
  </g>
</svg>
